<svg width="151" height="34" viewBox="0 0 151 34" fill="none" xmlns="http://www.w3.org/2000/svg">
<g clip-path="url(#clip0_0_141)">
<path d="M0.953197 0.131498C0.57185 -0.176998 0 0.0918212 0 0.579579L8.90956e-06 32.4802C8.90956e-06 33.1982 0.405972 33.7802 0.906752 33.7802H9.48009C9.88772 33.7802 10.2182 33.4526 10.2182 33.0489V19.8156C10.2182 19.3867 10.6729 19.107 11.0609 19.2971L17.0488 22.2273C17.1574 22.2805 17.2845 22.2013 17.2828 22.0813C17.2758 21.5767 17.2638 20.4536 17.2821 19.6886V13.659C17.2821 13.3463 17.1646 13.0578 16.9746 12.9041L0.953197 0.131498Z" fill="#A72328"/>
<path d="M20.0234 23.5766C20.0234 23.6375 20.0583 23.6932 20.1134 23.7202L23.4844 25.3726C23.4447 25.353 23.4844 26.0442 23.4844 26.5393V33.0295C23.4844 33.4335 23.8148 33.7609 24.2225 33.7609H30.8997C31.4004 33.7609 31.8063 33.1788 31.8063 32.4608V12.8218C31.8063 12.2995 31.163 12.0447 30.7996 12.423L20.7333 19.1836C20.2893 19.4817 20.0234 19.9785 20.0234 20.5099V23.5766Z" fill="#A72328"/>
<mask id="mask0_0_141" style="mask-type:alpha" maskUnits="userSpaceOnUse" x="10" y="19" width="14" height="15">
<path d="M10.2109 19.8163V33.0634V33.9987H23.44V25.342L10.9149 19.2422L10.2109 19.8163Z" fill="black"/>
</mask>
<g mask="url(#mask0_0_141)">
<path d="M11.4301 18.2969H11.4301C11.1883 18.2969 10.9922 18.4911 10.9922 18.7307V33.3374C10.9922 33.577 11.1883 33.7713 11.4301 33.7713C11.672 33.7713 11.868 33.577 11.868 33.3374V18.7307C11.868 18.4911 11.672 18.2969 11.4301 18.2969Z" fill="#D12D34"/>
<path d="M13.2348 18.2969H13.2348C12.9929 18.2969 12.7969 18.4911 12.7969 18.7307V33.3374C12.7969 33.577 12.9929 33.7713 13.2348 33.7713C13.4767 33.7713 13.6727 33.577 13.6727 33.3374V18.7307C13.6727 18.4911 13.4767 18.2969 13.2348 18.2969Z" fill="#D12D34"/>
<path d="M15.0395 15.6875H15.0395C14.7976 15.6875 14.6016 15.8817 14.6016 16.1214V33.3313C14.6016 33.5709 14.7976 33.7651 15.0395 33.7651C15.2813 33.7651 15.4774 33.5709 15.4774 33.3313V16.1214C15.4774 15.8817 15.2813 15.6875 15.0395 15.6875Z" fill="#D12D34"/>
<path d="M16.8442 15.6875H16.8442C16.6023 15.6875 16.4062 15.8817 16.4062 16.1214V33.3313C16.4062 33.5709 16.6023 33.7651 16.8442 33.7651C17.086 33.7651 17.2821 33.5709 17.2821 33.3313V16.1214C17.2821 15.8817 17.086 15.6875 16.8442 15.6875Z" fill="#D12D34"/>
<path d="M20.4535 21.4688H20.4535C20.2117 21.4688 20.0156 21.663 20.0156 21.9026V33.3277C20.0156 33.5673 20.2117 33.7615 20.4535 33.7615C20.6954 33.7615 20.8915 33.5673 20.8915 33.3277V21.9026C20.8915 21.663 20.6954 21.4688 20.4535 21.4688Z" fill="#D12D34"/>
<path d="M18.6489 21.75H18.6489C18.407 21.75 18.2109 21.9442 18.2109 22.1839V33.3216C18.2109 33.5612 18.407 33.7554 18.6489 33.7554C18.8907 33.7554 19.0868 33.5612 19.0868 33.3216V22.1839C19.0868 21.9442 18.8907 21.75 18.6489 21.75Z" fill="#D12D34"/>
<path d="M22.2582 21.4688H22.2582C22.0164 21.4688 21.8203 21.663 21.8203 21.9026V33.3277C21.8203 33.5673 22.0164 33.7615 22.2582 33.7615C22.5001 33.7615 22.6962 33.5673 22.6962 33.3277V21.9026C22.6962 21.663 22.5001 21.4688 22.2582 21.4688Z" fill="#D12D34"/>
</g>
<path d="M45.5627 22.513H43.2188V20.8019H45.5627V16.8906H49.0173V20.8019H52.8416V22.513H49.0173V28.8688C49.0173 29.4881 49.0831 30.0177 49.2144 30.4577C49.3626 30.8815 49.5517 31.2319 49.7819 31.5089C50.0287 31.7698 50.3086 31.9651 50.6209 32.0955C50.9335 32.226 51.2626 32.2912 51.608 32.2912C52.1015 32.2912 52.5786 32.2179 53.0391 32.0711C53.4995 31.9082 53.8861 31.737 54.1987 31.5577L54.939 33.1468C54.4455 33.3913 53.878 33.5949 53.2365 33.7578C52.6113 33.9207 51.9861 34.0023 51.3612 34.0023C49.5024 34.0023 48.0713 33.5461 47.068 32.6334C46.0644 31.7206 45.5627 30.4659 45.5627 28.8688V22.513Z" fill="#D12D34"/>
<path d="M63.5658 32.2907C64.3719 32.2907 65.1204 32.1523 65.8111 31.875C66.5187 31.5981 67.2094 31.2071 67.8839 30.7017L68.8707 32.1683C68.5581 32.4456 68.1881 32.6981 67.7604 32.9262C67.3492 33.1543 66.8968 33.35 66.4033 33.5129C65.9262 33.6597 65.4246 33.7738 64.8983 33.855C64.372 33.953 63.8456 34.0019 63.3193 34.0019C62.1513 34.0019 61.0821 33.847 60.1115 33.5373C59.1575 33.244 58.3432 32.8122 57.6687 32.2419C56.9945 31.6552 56.4682 30.9381 56.0897 30.0906C55.7278 29.2432 55.5469 28.2653 55.5469 27.1572C55.5469 26.0653 55.7197 25.0956 56.0651 24.2482C56.427 23.3844 56.9202 22.6674 57.5454 22.097C58.1869 21.5103 58.9437 21.0703 59.8154 20.7769C60.6871 20.4673 61.6496 20.3125 62.7022 20.3125C63.6893 20.3125 64.6187 20.4592 65.4904 20.7525C66.3624 21.0458 67.119 21.4777 67.7604 22.0481C68.4022 22.6022 68.9119 23.2785 69.2904 24.0771C69.6685 24.8756 69.8579 25.7801 69.8579 26.7905V28.5016H59.3219C59.5194 29.8543 59.9883 30.8239 60.7283 31.4107C61.4852 31.9974 62.4308 32.2907 63.5658 32.2907ZM62.7022 21.9014C62.2252 21.9014 61.7812 21.991 61.37 22.1703C60.9585 22.3496 60.597 22.6348 60.2843 23.0259C59.9883 23.417 59.7415 23.9222 59.544 24.5415C59.3631 25.1608 59.2645 25.9104 59.2479 26.7905H66.1568C66.1568 25.9431 66.0579 25.2097 65.8607 24.5904C65.6632 23.9711 65.3999 23.4659 65.0711 23.0748C64.7585 22.6674 64.3885 22.374 63.9608 22.1948C63.5496 21.9992 63.1299 21.9014 62.7022 21.9014Z" fill="#D12D34"/>
<path d="M82.4399 22.508H79.4792C78.3604 22.508 77.5053 22.8095 76.9131 23.4125C76.3207 23.9992 76.0246 24.8792 76.0246 26.0526V33.5084H72.5703V26.0526C72.5703 24.3903 73.0966 23.1029 74.1496 22.1903C75.2187 21.2613 76.7484 20.7969 78.7389 20.7969H82.4399V22.508Z" fill="#D12D34"/>
<path d="M84.4023 20.7969H97.233C99.5853 20.7969 101.321 21.2206 102.439 22.068C103.574 22.8992 104.142 24.1459 104.142 25.8082V33.5084H100.687V25.8082C100.687 24.6348 100.391 23.7955 99.799 23.2903C99.2069 22.7688 98.3514 22.508 97.233 22.508H95.9991V33.5084H92.5448V22.508H87.8569V33.5084H84.4023V20.7969Z" fill="#D12D34"/>
<path d="M111.039 33.5068H107.584V21.0398H111.039V33.5068ZM111.162 17.7397C111.162 18.2285 110.989 18.6604 110.644 19.0352C110.315 19.3938 109.871 19.573 109.312 19.573C108.752 19.573 108.3 19.3938 107.954 19.0352C107.625 18.6604 107.461 18.2285 107.461 17.7397C107.461 17.2507 107.625 16.827 107.954 16.4685C108.3 16.0937 108.752 15.9062 109.312 15.9062C109.854 15.9062 110.298 16.0937 110.644 16.4685C110.989 16.827 111.162 17.2507 111.162 17.7397Z" fill="#D12D34"/>
<path d="M128.188 33.5084H124.734V25.8082C124.734 24.6348 124.437 23.7955 123.845 23.2903C123.253 22.7688 122.398 22.508 121.279 22.508H118.071V33.5084H114.617V20.7969H121.279C123.631 20.7969 125.367 21.2206 126.485 22.068C127.62 22.8992 128.188 24.1459 128.188 25.8082V33.5084Z" fill="#D12D34"/>
<path d="M134.349 29.4795C134.349 31.0278 135.295 31.8018 137.187 31.8018H140.641V27.1572H137.187C135.295 27.1572 134.349 27.9313 134.349 29.4795ZM140.641 25.446C140.641 24.2726 140.329 23.4089 139.704 22.8548C139.095 22.3007 138.297 22.0237 137.31 22.0237C136.57 22.0237 135.846 22.1377 135.139 22.3659C134.432 22.5777 133.799 22.8711 133.239 23.2459L132.376 21.7792C132.737 21.5347 133.132 21.3229 133.56 21.1436C134.004 20.9644 134.456 20.8177 134.917 20.7036C135.377 20.5733 135.83 20.4755 136.274 20.4103C136.735 20.3451 137.162 20.3125 137.557 20.3125C138.61 20.3125 139.539 20.4347 140.345 20.6792C141.151 20.9236 141.834 21.274 142.393 21.7303C142.952 22.1866 143.372 22.7326 143.652 23.3681C143.948 23.9874 144.096 24.68 144.096 25.446V33.5129H137.187C134.95 33.5129 133.297 33.1788 132.227 32.5108C131.175 31.8426 130.648 30.8321 130.648 29.4795C130.648 28.1268 131.175 27.1164 132.227 26.4482C133.297 25.7801 134.95 25.446 137.187 25.446H140.641Z" fill="#D12D34"/>
<path d="M150.868 33.5101H147.414V16.3984H150.868V33.5101Z" fill="#D12D34"/>
<path d="M43.668 1.95312H48.2438C48.9349 1.95312 49.5314 2.01535 50.034 2.1398C50.5453 2.25536 50.9671 2.42425 51.2991 2.64648C51.631 2.85982 51.8778 3.11761 52.0391 3.41984C52.2007 3.72207 52.2815 4.05543 52.2815 4.41987C52.2815 4.89099 52.1467 5.29992 51.8778 5.64659C51.6086 5.99327 51.2049 6.25105 50.6664 6.41994C51.3393 6.55328 51.8641 6.81551 52.241 7.20664C52.6269 7.58886 52.8197 8.08223 52.8197 8.68669C52.8197 9.48671 52.4834 10.1223 51.8104 10.5934C51.1465 11.0557 50.0923 11.2868 48.6475 11.2868H43.668V1.95312ZM45.6194 7.01995V10.2867H48.6475C49.3205 10.2867 49.8365 10.1534 50.1953 9.88673C50.5544 9.62005 50.7338 9.22003 50.7338 8.68669C50.7338 8.11778 50.5544 7.69998 50.1953 7.43329C49.8365 7.15774 49.3205 7.01995 48.6475 7.01995H45.6194ZM48.2438 6.01991C49.5448 6.01991 50.1953 5.48658 50.1953 4.41987C50.1953 3.94876 50.0293 3.58873 49.6974 3.33985C49.3745 3.08205 48.89 2.95316 48.2438 2.95316H45.6194V6.01991H48.2438Z" fill="#A72328"/>
<path d="M59.7505 5.29274H58.1356C57.5254 5.29274 57.059 5.4572 56.7358 5.78608C56.4129 6.10611 56.2513 6.58613 56.2513 7.22613V11.2929H54.3672V7.22613C54.3672 6.31944 54.6542 5.61719 55.2286 5.1194C55.8117 4.61271 56.6462 4.35938 57.7319 4.35938H59.7505V5.29274Z" fill="#A72328"/>
<path d="M64.1829 10.6862C64.4702 10.6862 64.7392 10.6328 64.9906 10.5262C65.2418 10.4195 65.4617 10.2551 65.6501 10.0328C65.8383 9.80168 65.9865 9.5039 66.0941 9.13945C66.2108 8.775 66.2691 8.33498 66.2691 7.81942C66.2691 7.30382 66.2108 6.86383 66.0941 6.49935C65.9865 6.1349 65.8383 5.84157 65.6501 5.61934C65.4617 5.3882 65.2418 5.21931 64.9906 5.11264C64.7392 5.00598 64.4702 4.95263 64.1829 4.95263C63.8959 4.95263 63.6266 5.00598 63.3755 5.11264C63.1243 5.21931 62.9044 5.3882 62.7159 5.61934C62.5275 5.84157 62.3749 6.1349 62.2586 6.49935C62.1506 6.86383 62.097 7.30382 62.097 7.81942C62.097 8.33498 62.1506 8.775 62.2586 9.13945C62.3749 9.5039 62.5275 9.80168 62.7159 10.0328C62.9044 10.2551 63.1243 10.4195 63.3755 10.5262C63.6266 10.6328 63.8959 10.6862 64.1829 10.6862ZM64.1829 4.08594C64.7841 4.08594 65.336 4.17038 65.8383 4.3393C66.3499 4.49928 66.7851 4.73929 67.1439 5.05933C67.5027 5.37043 67.781 5.76155 67.9785 6.2327C68.1847 6.69491 68.288 7.22383 68.288 7.81942C68.288 8.42387 68.1847 8.95721 67.9785 9.41946C67.781 9.8817 67.5027 10.2728 67.1439 10.5928C66.7851 10.904 66.3499 11.1395 65.8383 11.2995C65.336 11.4684 64.7841 11.5529 64.1829 11.5529C63.573 11.5529 63.0167 11.4684 62.5141 11.2995C62.0118 11.1395 61.5809 10.904 61.2222 10.5928C60.8634 10.2728 60.5807 9.8817 60.3742 9.41946C60.1767 8.95721 60.0781 8.42387 60.0781 7.81942C60.0781 7.22383 60.1767 6.69491 60.3742 6.2327C60.5807 5.76155 60.8634 5.37043 61.2222 5.05933C61.5809 4.73929 62.0118 4.49928 62.5141 4.3393C63.0167 4.17038 63.573 4.08594 64.1829 4.08594Z" fill="#A72328"/>
<path d="M73.1333 8.21999H71.7203V11.2868H69.8359V1.95312H71.7203V7.28663H73.1333L75.2195 4.3532H77.2381L74.8829 7.68666L77.3728 11.2868H75.2195L73.1333 8.21999Z" fill="#A72328"/>
<path d="M82.2178 10.6195C82.6573 10.6195 83.0654 10.5439 83.4423 10.3928C83.8282 10.2417 84.2051 10.0284 84.5729 9.75281L85.1114 10.5528C84.9407 10.7039 84.7389 10.8417 84.5055 10.9662C84.2812 11.0906 84.0344 11.1973 83.7655 11.2862C83.5053 11.3662 83.2317 11.4284 82.9444 11.4729C82.6573 11.5262 82.3703 11.5529 82.083 11.5529C81.4459 11.5529 80.8628 11.4684 80.3334 11.2995C79.813 11.1395 79.369 10.904 79.0012 10.5928C78.6331 10.2728 78.346 9.8817 78.1398 9.41946C77.9423 8.95721 77.8438 8.42387 77.8438 7.81942C77.8438 7.22383 77.938 6.69491 78.1264 6.2327C78.3236 5.76155 78.5928 5.37043 78.9338 5.05933C79.2839 4.73929 79.6963 4.49928 80.1721 4.3393C80.6475 4.17038 81.1723 4.08594 81.7467 4.08594C82.2848 4.08594 82.7918 4.16596 83.2676 4.32595C83.743 4.48596 84.1558 4.72152 84.5055 5.03265C84.8556 5.33488 85.1336 5.70378 85.3401 6.13935C85.5463 6.57492 85.6496 7.06826 85.6496 7.6194V8.55276H79.9028C80.0105 9.29057 80.2663 9.81948 80.67 10.1395C81.0828 10.4595 81.5985 10.6195 82.2178 10.6195ZM81.7467 4.95263C81.4865 4.95263 81.2441 5.00153 81.0197 5.09932C80.7954 5.19709 80.5983 5.35265 80.4276 5.56599C80.2663 5.77932 80.1315 6.05491 80.0239 6.39268C79.9253 6.73049 79.8713 7.13938 79.8623 7.6194H83.6307C83.6307 7.15716 83.5771 6.75713 83.4694 6.41936C83.3618 6.08158 83.218 5.806 83.0386 5.59266C82.8682 5.37043 82.6664 5.21044 82.433 5.11264C82.2087 5.00598 81.98 4.95263 81.7467 4.95263Z" fill="#A72328"/>
<path d="M92.5161 5.29274H90.9013C90.291 5.29274 89.8246 5.4572 89.5014 5.78608C89.1785 6.10611 89.0169 6.58613 89.0169 7.22613V11.2929H87.1328V7.22613C87.1328 6.31944 87.4198 5.61719 87.9942 5.1194C88.5773 4.61271 89.4118 4.35938 90.4975 4.35938H92.5161V5.29274Z" fill="#A72328"/>
</g>
<defs>
<clipPath id="clip0_0_141">
<rect width="151" height="34" fill="white"/>
</clipPath>
</defs>
</svg>
