<svg width="24" height="24" viewBox="0 0 24 24" fill="none" xmlns="http://www.w3.org/2000/svg">
<rect width="24" height="24" rx="12" fill="#2E2E32"/>
<path d="M10 10.5H14M10 12.5H13M15 8C15.3978 8 15.7794 8.15804 16.0607 8.43934C16.342 8.72064 16.5 9.10218 16.5 9.5V13.5C16.5 13.8978 16.342 14.2794 16.0607 14.5607C15.7794 14.842 15.3978 15 15 15H12.5L10 16.5V15H9C8.60218 15 8.22064 14.842 7.93934 14.5607C7.65804 14.2794 7.5 13.8978 7.5 13.5V9.5C7.5 9.10218 7.65804 8.72064 7.93934 8.43934C8.22064 8.15804 8.60218 8 9 8H15Z" stroke="#D12D34" stroke-width="0.8" stroke-linecap="round" stroke-linejoin="round"/>
</svg>
